<?xml version="1.0" standalone="no"?><!DOCTYPE svg PUBLIC "-//W3C//DTD SVG 1.1//EN" "http://www.w3.org/Graphics/SVG/1.1/DTD/svg11.dtd"><svg t="1598579786933" class="icon" viewBox="0 0 1024 1024" version="1.1" xmlns="http://www.w3.org/2000/svg" p-id="3112" xmlns:xlink="http://www.w3.org/1999/xlink" width="200" height="200"><defs><style type="text/css"></style></defs><path d="M511.7 512.3m-448.4 0a448.4 448.4 0 1 0 896.8 0 448.4 448.4 0 1 0-896.8 0Z" fill="#B5F1F4" p-id="3113"></path><path d="M779.3 342.1l-11.5 2.5 191.7 191.7c0.4-7.9 0.6-15.9 0.6-24 0-9.3-0.3-18.6-0.9-27.8L799.1 324.4l-19.8 17.7zM709.6 914.7C848 846.6 946.1 709.2 958.7 547.8L816 405.1l-43.9 10.4L631.5 275 522.9 382.1l-320.4 27.1 507.1 505.5z" fill="#84DBFF" p-id="3114"></path><path d="M555.7 623.6v-48.7h-87.9v48.7c0 3.9-3.2 7-7 7h-60.6v168.2h223.1V630.6h-60.6c-3.9 0-7-3.1-7-7z" fill="#FED8B2" p-id="3115"></path><path d="M623.3 630.6h-60.6c-3.9 0-7-3.2-7-7v-48.7h-48v223.9h115.6V630.6z" fill="#EABE96" p-id="3116"></path><path d="M365.6 472.7m-35.1 0a35.1 35.1 0 1 0 70.2 0 35.1 35.1 0 1 0-70.2 0Z" fill="#FED8B2" p-id="3117"></path><path d="M650.3 472.7m-35.1 0a35.1 35.1 0 1 0 70.2 0 35.1 35.1 0 1 0-70.2 0Z" fill="#EABE96" p-id="3118"></path><path d="M511.9 619H504c-73.2 0-132.6-59.3-132.6-132.6v-121c0-73.2 59.3-132.6 132.6-132.6h7.9c73.2 0 132.6 59.3 132.6 132.6v121c0 73.2-59.3 132.6-132.6 132.6z" fill="#F4E3C3" p-id="3119"></path><path d="M511.9 232.9h-4.2V619h4.2c73.2 0 132.6-59.3 132.6-132.6v-121c0-73.2-59.3-132.5-132.6-132.5z" fill="#FED8B2" p-id="3120"></path><path d="M443.6 457.1m-13.7 0a13.7 13.7 0 1 0 27.4 0 13.7 13.7 0 1 0-27.4 0Z" fill="#59595B" p-id="3121"></path><path d="M572.3 457.1m-13.7 0a13.7 13.7 0 1 0 27.4 0 13.7 13.7 0 1 0-27.4 0Z" fill="#272525" p-id="3122"></path><path d="M632.9 630.6h-46.8c0 41.1-33.3 81-74.4 81s-74.4-39.9-74.4-81h-46.8c-56.3 0-102 45.7-102 102v168.7c65.7 37.8 141.9 59.4 223.1 59.4s157.4-21.6 223.1-59.4V732.6c0.1-56.3-45.5-102-101.8-102z" fill="#1EA8A4" p-id="3123"></path><path d="M632.9 630.6h-46.8c0 41.1-33.3 81-74.4 81-1.3 0-2.7 0-4-0.1v249.2c1.3 0 2.7 0.1 4 0.1 81.2 0 157.4-21.6 223.1-59.4V732.6c0-56.3-45.6-102-101.9-102z" fill="#009385" p-id="3124"></path><path d="M508 569c-24.6 0-44.6-20-44.6-44.6 0-4.2 3.4-7.5 7.5-7.5s7.5 3.4 7.5 7.5c0 16.3 13.2 29.5 29.5 29.5s29.5-13.2 29.5-29.5c0-4.2 3.4-7.5 7.5-7.5 4.2 0 7.5 3.4 7.5 7.5 0.2 24.6-19.8 44.6-44.4 44.6z" fill="#FD8469" p-id="3125"></path><path d="M545 516.9c-4.2 0-7.5 3.4-7.5 7.5 0 16.3-13.2 29.5-29.5 29.5h-0.3V569h0.3c24.6 0 44.6-20 44.6-44.6 0-4.2-3.4-7.5-7.6-7.5z" fill="#FC6F58" p-id="3126"></path><path d="M461.5 213.5c-44.5 0-102.9 84-116.4 166.2-86.7 5.4-144.4 15.1-144.4 26.1 0 17 137.9 30.8 308 30.8s308-13.8 308-30.8c0-11-57.7-20.6-144.4-26.1-13.5-82.2-72-166.2-116.4-166.2h-94.4z" fill="#B97850" p-id="3127"></path><path d="M672.3 379.7c-13.5-82.2-72-166.2-116.4-166.2h-48.2v223.1h1c170.1 0 308-13.8 308-30.8 0-11-57.7-20.6-144.4-26.1z" fill="#935635" p-id="3128"></path><path d="M822.1 621.2l-4.1-19.1c-9.2-43.3 18.4-85.8 61.6-95l19.1-4.1 4.1 19.1c9.2 43.3-18.4 85.8-61.6 95l-19.1 4.1zM752.4 669l-9.7-1.5c-21.8-3.5-36.7-24-33.2-45.8l1.5-9.7 9.7 1.5c21.8 3.5 36.7 24 33.2 45.8l-1.5 9.7zM854.1 718.8l-9.7-1.5c-21.8-3.5-36.7-24-33.2-45.8l1.5-9.7 9.7 1.5c21.8 3.5 36.7 24 33.2 45.8l-1.5 9.7zM804.2 362.8l-9.7-1.5c-21.8-3.5-36.7-24-33.2-45.8l1.5-9.7 9.7 1.5c21.8 3.5 36.7 24 33.2 45.8l-1.5 9.7z" fill="#66B31B" p-id="3129"></path><path d="M898.9 503l4.1 19.1c9.2 43.3-18.4 85.8-61.6 95l-19.1 4.1L898.9 503zM752.4 669l-9.7-1.5c-21.8-3.5-36.7-24-33.2-45.8l1.5-9.7 41.4 57zM854.1 718.8l-9.7-1.5c-21.8-3.5-36.7-24-33.2-45.8l1.5-9.7 41.4 57zM804.2 362.8l-9.7-1.5c-21.8-3.5-36.7-24-33.2-45.8l1.5-9.7 41.4 57z" fill="#599B13" p-id="3130"></path><path d="M829.5 511.5c0-9.7-4.8-18.2-12.2-23.4 1.5-8.9-1.1-18.3-8-25.2-6.8-6.8-16.3-9.5-25.2-8-5.2-7.3-13.7-12.2-23.4-12.2s-18.2 4.8-23.4 12.2c-8.9-1.5-18.3 1.1-25.2 8-6.8 6.8-9.5 16.3-8 25.2-7.3 5.2-12.2 13.7-12.2 23.4s4.8 18.2 12.2 23.4c-1.5 8.9 1.1 18.3 8 25.2 6.8 6.8 16.3 9.5 25.2 8 5.2 7.3 13.7 12.2 23.4 12.2s18.2-4.8 23.4-12.2c8.9 1.5 18.3-1.1 25.2-8 6.8-6.8 9.5-16.3 8-25.2 7.4-5.2 12.2-13.7 12.2-23.4z" fill="#E6F3FF" p-id="3131"></path><path d="M829.5 511.5c0-9.7-4.8-18.2-12.2-23.4 1.5-8.9-1.1-18.3-8-25.2-6.8-6.8-16.3-9.5-25.2-8-5.2-7.3-13.7-12.2-23.4-12.2-0.3 0-0.7 0.1-1 0.1v137.3c0.3 0 0.7 0.1 1 0.1 9.7 0 18.2-4.8 23.4-12.2 8.9 1.5 18.3-1.1 25.2-8 6.8-6.8 9.5-16.3 8-25.2 7.4-5.1 12.2-13.6 12.2-23.3z" fill="#CFDBE6" p-id="3132"></path><path d="M760.8 512.3m-31.7 0a31.7 31.7 0 1 0 63.4 0 31.7 31.7 0 1 0-63.4 0Z" fill="#FFD15D" p-id="3133"></path><path d="M760.8 480.6c-0.3 0-0.7 0-1 0.1V544c0.3 0 0.7 0.1 1 0.1 17.5 0 31.7-14.2 31.7-31.7 0.1-17.6-14.1-31.8-31.7-31.8z" fill="#F9B54C" p-id="3134"></path></svg>