<svg t="1598576491641" class="icon" viewBox="0 0 1024 1024" version="1.1" xmlns="http://www.w3.org/2000/svg" p-id="3877" width="128" height="128"><path d="M794.8 425.09c-22.77-30-49.99-56.07-80.93-77.51-27.24-18.87-56.77-33.74-87.97-44.3V154.66c0-11.05-8.95-20-20-20s-20 8.95-20 20v163.29c0 8.89 5.87 16.71 14.4 19.2 64.21 18.71 121.96 58.53 162.64 112.12 42.01 55.35 64.1 121.46 63.88 191.17-0.19 59.55-17.08 117.47-48.86 167.5-30.12 47.42-72.25 85.91-122.05 111.54H368.09c-49.62-25.54-91.64-63.86-121.74-111.05-31.74-49.78-48.74-107.43-49.16-166.74-0.49-69.06 20.96-134.75 62.03-189.96 6.59-8.86 4.75-21.39-4.11-27.98s-21.39-4.75-27.98 4.11c-46.3 62.25-70.48 136.29-69.93 214.12 0.47 66.84 19.64 131.83 55.44 187.96 34.84 54.63 83.87 98.7 141.8 127.46 2.76 1.37 5.81 2.09 8.89 2.09h297.35c3.08 0 6.13-0.71 8.89-2.08 58.14-28.86 107.3-73.13 142.16-128.01 35.83-56.41 54.88-121.7 55.09-188.82 0.24-78.58-24.66-153.09-72.02-215.49z" fill="#004039" p-id="3878"></path><path d="M282.09 416.02c4.93 0 9.87-1.81 13.73-5.46 2.61-2.46 5.31-4.93 8.03-7.33 8.28-7.31 9.07-19.95 1.76-28.23-7.31-8.28-19.95-9.07-28.23-1.76-3.06 2.7-6.09 5.47-9.03 8.25-8.03 7.59-8.39 20.24-0.8 28.27 3.93 4.16 9.23 6.26 14.54 6.26zM339.31 372.52c3.52 0 7.08-0.93 10.31-2.88a313.412 313.412 0 0 1 72.74-32.11 20.01 20.01 0 0 0 14.32-19.18v-163.7c0-11.05-8.95-20-20-20s-20 8.95-20 20v149.1a353.027 353.027 0 0 0-67.72 31.63c-9.46 5.71-12.5 18-6.79 27.46a19.996 19.996 0 0 0 17.14 9.68z" fill="#004039" p-id="3879"></path><path d="M363.45 142.8c11.05 0 20-8.95 20-20 0-10.08 8.2-18.28 18.28-18.28h218.94c10.08 0 18.28 8.2 18.28 18.28 0 11.05 8.95 20 20 20s20-8.95 20-20c0-32.14-26.14-58.28-58.28-58.28H401.73c-32.14 0-58.28 26.14-58.28 58.28 0 11.04 8.95 20 20 20z" fill="#004039" p-id="3880"></path><path d="M783.85 615.64c-80.08 24.52-196.14 17.75-278.47-24.84-81.8-42.33-192.5-33.14-257.56-22.21-5.01 20.63-7.66 42.19-7.66 64.36 0 106.89 61.62 199.38 151.28 243.89h241.67c89.66-44.5 151.28-136.99 151.28-243.89 0.01-5.81-0.17-11.59-0.54-17.31zM382.51 748.8c-39.43 0-71.39-31.96-71.39-71.38 0-39.43 31.96-71.39 71.39-71.39s71.39 31.96 71.39 71.39c0.01 39.42-31.96 71.38-71.39 71.38z m170.61 103.79c-26.16 0-47.37-21.21-47.37-47.37 0-26.16 21.21-47.37 47.37-47.37 26.17 0 47.37 21.21 47.37 47.37-0.01 26.16-21.21 47.37-47.37 47.37z m79.24-96.31c-19.67 0-35.61-15.95-35.61-35.62 0-19.67 15.94-35.62 35.61-35.62 19.68 0 35.63 15.95 35.63 35.62 0 19.67-15.95 35.62-35.63 35.62z" fill="#cce6ff" p-id="3881"></path></svg>