<svg t="1598498726666" class="icon" viewBox="0 0 1024 1024" version="1.1" xmlns="http://www.w3.org/2000/svg" p-id="2617" width="128" height="128"><path d="M888.39 835.32H515.3c-11.05 0-20-8.95-20-20V764.8c0-38.38 31.23-69.61 69.61-69.61h37.54c8.18 0 14.66-2.72 20.38-8.56 10.4-10.62 27.59-41.42 25.83-128.45-0.35-17.3-7.01-33.85-18.75-46.61-14.91-16.21-24.07-37.2-25.8-59.11-0.87-11.01 7.36-20.64 18.37-21.51 11.01-0.86 20.64 7.36 21.51 18.37 1.04 13.21 6.35 25.37 15.36 35.16a110.874 110.874 0 0 1 29.3 72.88c1.57 77.52-10.96 130.43-37.25 157.26-13.18 13.45-30.11 20.57-48.95 20.57h-37.54c-16.33 0-29.61 13.28-29.61 29.61v30.51h333.09V764.8c0-16.33-13.28-29.61-29.61-29.61h-35.8c-18.84 0-35.77-7.11-48.95-20.57-26.29-26.83-38.82-79.74-37.25-157.25 0.55-27.03 10.96-52.92 29.33-72.91a58.756 58.756 0 0 0 15.51-39.84c0-15.77-6.15-30.59-17.32-41.72-11.17-11.13-25.98-17.2-41.79-17.18-1.46 0-2.93 0.06-4.37 0.17-11.01 0.83-20.62-7.42-21.45-18.43-0.83-11.01 7.42-20.62 18.43-21.45 2.41-0.18 4.85-0.28 7.27-0.29h0.34c26.35 0 51.13 10.24 69.81 28.85 18.76 18.69 29.09 43.57 29.09 70.06 0 24.85-9.25 48.61-26.06 66.9-11.77 12.81-18.44 29.38-18.79 46.66-1.77 87.03 15.42 117.83 25.83 128.45 5.72 5.84 12.2 8.56 20.38 8.56h35.8c38.38 0 69.61 31.23 69.61 69.61v50.51c-0.01 11.04-8.96 20-20.01 20z" fill="#004039" p-id="2618"></path><path d="M640.89 415.48c-4.36 0-8.75-1.42-12.43-4.35-8.65-6.87-10.08-19.46-3.21-28.1 1.1-1.38 2.25-2.75 3.42-4.07 7.33-8.26 19.97-9.02 28.23-1.69 8.26 7.33 9.02 19.97 1.69 28.23-0.7 0.79-1.38 1.6-2.04 2.42-3.94 4.97-9.78 7.56-15.66 7.56zM888.39 907.3H515.3c-11.05 0-20-8.95-20-20s8.95-20 20-20h373.09c11.05 0 20 8.95 20 20s-8.95 20-20 20z" fill="#004039" p-id="2619"></path><path d="M457.4 731.51c-0.31 0-0.63-0.01-0.95-0.02-68.81-3.21-132.99-32.45-180.72-82.33-47.89-50.04-74.26-115.75-74.26-185.04 0-71.49 27.84-138.71 78.39-189.26 50.55-50.55 117.77-78.39 189.26-78.39 79.83 0 154.9 35.25 205.96 96.71 7.06 8.5 5.89 21.11-2.6 28.17-8.49 7.06-21.11 5.89-28.16-2.6-43.44-52.29-107.3-82.27-175.2-82.27-60.81 0-117.98 23.68-160.98 66.68s-66.68 100.17-66.68 160.98c0 58.93 22.43 114.82 63.16 157.38 40.6 42.42 95.18 67.29 153.69 70.02 11.03 0.52 19.56 9.88 19.05 20.91-0.5 10.71-9.35 19.06-19.96 19.06z" fill="#004039" p-id="2620"></path><path d="M431.43 832.36c-0.71 0-1.43-0.04-2.15-0.12-90.29-9.67-173.69-52.24-234.85-119.88-61.61-68.14-95.54-156.3-95.54-248.23 0-49.97 9.79-98.46 29.1-144.12 18.65-44.09 45.34-83.68 79.34-117.68s73.59-60.69 117.68-79.34c45.66-19.31 94.15-29.1 144.12-29.1 147.43 0 280.74 87.36 339.6 222.56 4.41 10.13-0.23 21.91-10.35 26.32-10.13 4.41-21.91-0.23-26.32-10.35-52.51-120.6-171.42-198.52-302.93-198.52-88.21 0-171.14 34.35-233.51 96.72-62.37 62.37-96.72 145.3-96.72 233.51 0 82 30.26 160.64 85.21 221.41 54.56 60.34 128.94 98.32 209.44 106.94 10.98 1.18 18.93 11.03 17.76 22.02-1.11 10.25-9.79 17.86-19.88 17.86z" fill="#004039" p-id="2621"></path><path d="M448.44 366.89l33.37 32.83c3.26 3.2 7.88 4.6 12.37 3.73l45.96-8.88c11.3-2.18 20.2 9.54 15.06 19.84l-20.9 41.89c-2.04 4.09-1.94 8.92 0.27 12.92l22.65 40.97c5.57 10.07-2.83 22.16-14.21 20.45l-46.3-6.94c-4.52-0.68-9.08 0.91-12.2 4.25l-31.97 34.2c-7.86 8.41-21.95 4.15-23.84-7.2l-7.7-46.18c-0.75-4.51-3.67-8.36-7.81-10.29l-42.41-19.83c-10.42-4.88-10.73-19.59-0.52-24.9l41.54-21.59c4.05-2.11 6.81-6.08 7.37-10.61l5.76-46.46c1.41-11.43 15.31-16.27 23.51-8.2z" fill="#cce6ff" p-id="2622"></path></svg>