<svg t="1598507579197" class="icon" viewBox="0 0 1024 1024" version="1.1" xmlns="http://www.w3.org/2000/svg" p-id="3550" width="128" height="128"><path d="M559.29 451.7H131.91v132.96h586.18v-40.89z" fill="#B4E7B4" p-id="3551"></path><path d="M944.56 537.68l-168.32-55.69-182.79-106.5a51.985 51.985 0 0 0-26.14-7.06h-191.7v-76.86c4.47-4.85 7.21-11.32 7.21-18.44 0-15.03-12.18-27.21-27.21-27.21-15.03 0-27.21 12.18-27.21 27.21 0 7.12 2.73 13.59 7.21 18.44v76.86H95.75c-28.63 0-51.92 23.29-51.92 51.92v23.96c0 11.05 8.95 20 20 20s20-8.95 20-20v-23.96c0-6.57 5.35-11.92 11.92-11.92h471.56c2.11 0 4.18 0.56 6 1.62L757.9 517.61c1.2 0.7 2.47 1.27 3.79 1.71l170.3 56.35c4.89 1.62 8.18 6.17 8.18 11.32v201.02c0 6.57-5.35 11.92-11.92 11.92-5.7 0-10.53-4.03-11.74-9.81-6.88-32.9-25.05-62.84-51.15-84.29-26.47-21.76-59.95-33.74-94.27-33.74-34.32 0-67.81 11.98-94.28 33.74-26.1 21.45-44.27 51.39-51.15 84.29-1.21 5.78-6.03 9.81-11.74 9.81H413.23c-5.7 0-10.53-4.04-11.74-9.81-6.88-32.9-25.05-62.84-51.15-84.29-26.47-21.76-59.95-33.74-94.27-33.74s-67.8 11.98-94.28 33.74c-26.1 21.45-44.27 51.39-51.15 84.29-1.21 5.78-6.03 9.81-11.74 9.81h-3.15c-6.57 0-11.92-5.35-11.92-11.92V588.98c0-11.05-8.95-20-20-20s-20 8.95-20 20V788c0 28.63 23.29 51.92 51.92 51.92h3.15c24.44 0 45.84-17.5 50.89-41.62 10.45-49.96 55.15-86.22 106.28-86.22 25.08 0 49.54 8.75 68.88 24.64 19.09 15.69 32.37 37.56 37.39 61.58 5.04 24.12 26.45 41.62 50.89 41.62h200.69c24.44 0 45.84-17.5 50.89-41.62 5.02-24.02 18.3-45.89 37.4-61.57 19.34-15.89 43.8-24.64 68.89-24.64 25.08 0 49.54 8.75 68.88 24.64 19.09 15.69 32.37 37.56 37.39 61.57 5.04 24.12 26.45 41.62 50.89 41.62 28.63 0 51.92-23.29 51.92-51.92V586.98a51.865 51.865 0 0 0-35.62-49.3z" fill="#004039" p-id="3552"></path><path d="M63.83 541.29c11.05 0 20-8.95 20-20v-11.95c0-11.05-8.95-20-20-20s-20 8.95-20 20v11.95c0 11.04 8.95 20 20 20zM771.09 739.76c-44.61 0-80.9 36.29-80.9 80.9s36.29 80.9 80.9 80.9 80.9-36.29 80.9-80.9-36.3-80.9-80.9-80.9z m0 121.79c-22.55 0-40.9-18.35-40.9-40.9s18.35-40.9 40.9-40.9 40.9 18.35 40.9 40.9-18.35 40.9-40.9 40.9zM255.87 739.76c-44.61 0-80.9 36.29-80.9 80.9s36.29 80.9 80.9 80.9 80.9-36.29 80.9-80.9-36.29-80.9-80.9-80.9z m0 121.79c-22.55 0-40.9-18.35-40.9-40.9s18.35-40.9 40.9-40.9 40.9 18.35 40.9 40.9-18.35 40.9-40.9 40.9zM498.77 269.48c0 17.11-2.98 33.83-8.86 49.71-3.83 10.36 1.45 21.86 11.81 25.7 2.29 0.85 4.64 1.25 6.94 1.25 8.13 0 15.77-4.99 18.76-13.06 7.53-20.34 11.35-41.73 11.35-63.6 0-40.57-12.99-79-37.57-111.16-6.71-8.77-19.26-10.45-28.04-3.74-8.77 6.71-10.45 19.26-3.74 28.04 19.2 25.11 29.35 55.15 29.35 86.86zM203.46 348.54c2.41 0 4.86-0.44 7.24-1.36 10.3-4 15.4-15.59 11.4-25.88-6.41-16.5-9.66-33.93-9.66-51.81 0-31.77 10.18-61.85 29.45-86.99 6.72-8.77 5.06-21.32-3.71-28.04-8.77-6.72-21.32-5.06-28.04 3.71-24.66 32.19-37.7 70.68-37.7 111.32 0 22.86 4.16 45.17 12.37 66.3 3.08 7.9 10.64 12.75 18.65 12.75zM391.27 215.59c18.13 12.03 28.95 32.17 28.95 53.89 0 16.23-6.04 31.74-17 43.68-7.47 8.14-6.93 20.79 1.2 28.26 3.84 3.53 8.69 5.27 13.52 5.27 5.4 0 10.79-2.18 14.74-6.47 17.76-19.34 27.54-44.46 27.54-70.74 0-35.16-17.51-67.76-46.83-87.22-9.21-6.11-21.62-3.6-27.72 5.61-6.12 9.2-3.61 21.61 5.6 27.72zM293.8 347.25c4.89 0 9.8-1.79 13.66-5.39 8.07-7.54 8.49-20.2 0.95-28.27-11.22-12-17.4-27.67-17.4-44.11 0-20.39 9.33-39.17 25.61-51.51 8.8-6.68 10.52-19.22 3.85-28.02s-19.22-10.52-28.02-3.85C266.1 206.07 251 236.46 251 269.48c0 26.62 10.01 51.99 28.19 71.43 3.93 4.21 9.26 6.34 14.61 6.34z" fill="#004039" p-id="3553"></path></svg>