<?xml version="1.0" standalone="no"?><!DOCTYPE svg PUBLIC "-//W3C//DTD SVG 1.1//EN" "http://www.w3.org/Graphics/SVG/1.1/DTD/svg11.dtd"><svg t="1742635494821" class="icon" viewBox="0 0 1024 1024" version="1.1" xmlns="http://www.w3.org/2000/svg" p-id="9591" xmlns:xlink="http://www.w3.org/1999/xlink" width="128" height="128"><path d="M512 12.8C236.8 12.8 12.8 236.8 12.8 512s224 499.2 499.2 499.2 499.2-224 499.2-499.2S787.2 12.8 512 12.8zM940.8 441.6 556.8 492.8l249.6-294.4C876.8 262.4 921.6 345.6 940.8 441.6zM761.6 160l-256 300.8L256 160c70.4-51.2 160-83.2 256-83.2C601.6 76.8 691.2 108.8 761.6 160zM512 947.2c-236.8 0-435.2-192-435.2-435.2 0-121.6 51.2-230.4 128-307.2L512 569.6l0 0 0 0 0 0 0 0 435.2-64c0 6.4 0 6.4 0 6.4C947.2 748.8 748.8 947.2 512 947.2z" p-id="9592" fill="#0081ff"></path></svg>