<?xml version="1.0" standalone="no"?><!DOCTYPE svg PUBLIC "-//W3C//DTD SVG 1.1//EN" "http://www.w3.org/Graphics/SVG/1.1/DTD/svg11.dtd"><svg t="1742828372367" class="icon" viewBox="0 0 1024 1024" version="1.1" xmlns="http://www.w3.org/2000/svg" p-id="2646" xmlns:xlink="http://www.w3.org/1999/xlink" width="128" height="128"><path d="M384 426.666667H213.333333c-46.933333 0-85.333333-38.4-85.333333-85.333334V213.333333c0-46.933333 38.4-85.333333 85.333333-85.333333h170.666667c46.933333 0 85.333333 38.4 85.333333 85.333333v128c0 46.933333-38.4 85.333333-85.333333 85.333334zM384 896H213.333333c-46.933333 0-85.333333-38.4-85.333333-85.333333v-213.333334c0-46.933333 38.4-85.333333 85.333333-85.333333h170.666667c46.933333 0 85.333333 38.4 85.333333 85.333333v213.333334c0 46.933333-38.4 85.333333-85.333333 85.333333zM810.666667 512h-170.666667c-46.933333 0-85.333333-38.4-85.333333-85.333333V213.333333c0-46.933333 38.4-85.333333 85.333333-85.333333h170.666667c46.933333 0 85.333333 38.4 85.333333 85.333333v213.333334c0 46.933333-38.4 85.333333-85.333333 85.333333zM810.666667 896h-170.666667c-46.933333 0-85.333333-38.4-85.333333-85.333333v-128c0-46.933333 38.4-85.333333 85.333333-85.333334h170.666667c46.933333 0 85.333333 38.4 85.333333 85.333334v128c0 46.933333-38.4 85.333333-85.333333 85.333333z" fill="#0081ff" p-id="2647"></path></svg>