<svg t="1598507527453" class="icon" viewBox="0 0 1024 1024" version="1.1" xmlns="http://www.w3.org/2000/svg" p-id="3244" width="128" height="128"><path d="M604.67 294.21h16.93c49.42 0 89.47 40.06 89.47 89.47v191.93l12.14 19.44 65.38 104.72c5.58 8.93-0.85 20.51-11.38 20.51H347.36c-14.22 0-18.66-19.21-5.89-25.46 65.32-31.93 169.5-88.91 202.63-141.72 49.52-78.92 60.57-258.89 60.57-258.89z" fill="#cce6ff" p-id="3245"></path><path d="M925.69 730.53L811.08 546.96V383.68c0-103.23-82.98-187.44-185.73-189.44v-12.5c0-21.81-8.54-42.37-24.03-57.86-15.5-15.51-36.05-24.06-57.87-24.06-45.16 0-81.91 36.75-81.91 81.92v12.5c-19.93 0.39-39.5 3.86-58.23 10.33-10.44 3.61-15.97 15-12.36 25.44s15 15.97 25.44 12.36c15.68-5.42 32.13-8.17 48.89-8.17h16.94c5.82 0 11.36-2.54 15.16-6.95 3.8-4.41 5.49-10.26 4.62-16.02-0.3-2.01-0.46-4.06-0.46-6.1v-23.39c0-23.11 18.8-41.92 41.91-41.92 11.13 0 21.63 4.38 29.58 12.33 7.95 7.95 12.33 18.45 12.33 29.58v23.39c0 2.04-0.15 4.1-0.46 6.11-0.86 5.76 0.82 11.61 4.62 16.02 3.8 4.41 9.33 6.95 15.16 6.95h16.93c82.42 0 149.47 67.05 149.47 149.47v169.01c0 3.75 1.05 7.42 3.04 10.59L891.77 751.7c5.26 8.42 2.1 16.06 0.49 18.95-1.6 2.89-6.41 9.63-16.35 9.63H212.29c-9.91 0-14.71-6.7-16.32-9.58s-4.78-10.49 0.42-18.92L312.82 563.2c1.95-3.16 2.98-6.79 2.98-10.51V383.68c0-21.25 4.36-41.77 12.96-60.98 4.51-10.08 0-21.91-10.09-26.42-10.08-4.51-21.91 0-26.42 10.09-10.91 24.39-16.45 50.41-16.45 77.32v163.33L162.35 730.78c-11.33 18.36-11.82 40.57-1.31 59.42s29.67 30.09 51.25 30.09H875.9c21.65 0 40.83-11.3 51.33-30.23s9.92-41.18-1.54-59.53z" fill="#004039" p-id="3246"></path><path d="M348.03 281.31c4.98 0 9.96-1.85 13.83-5.56 1.94-1.86 3.95-3.68 5.98-5.43 8.37-7.2 9.33-19.83 2.12-28.21-7.2-8.38-19.83-9.33-28.21-2.12-2.58 2.21-5.12 4.53-7.58 6.88-7.98 7.64-8.24 20.3-0.6 28.28a19.98 19.98 0 0 0 14.46 6.16zM605.35 840.05c-11.05 0-20 8.95-20 20v33.49c0 23.14-18.83 41.97-41.97 41.97s-41.97-18.83-41.97-41.97v-35.41c0-11.05-8.95-20-20-20s-20 8.95-20 20v35.41c0 45.2 36.77 81.97 81.97 81.97 45.2 0 81.97-36.77 81.97-81.97v-33.49c0-11.04-8.96-20-20-20zM337 553.11c0 11.05 8.95 20 20 20h231.64c11.05 0 20-8.96 20-20 0-11.05-8.95-20-20-20H357c-11.04 0-20 8.95-20 20zM690.7 573.11c11.05 0 20-8.96 20-20 0-11.05-8.95-20-20-20h-32.73c-11.05 0-20 8.95-20 20s8.95 20 20 20h32.73z" fill="#004039" p-id="3247"></path></svg>