<?xml version="1.0" standalone="no"?><!DOCTYPE svg PUBLIC "-//W3C//DTD SVG 1.1//EN" "http://www.w3.org/Graphics/SVG/1.1/DTD/svg11.dtd"><svg t="1756215767854" class="icon" viewBox="0 0 1024 1024" version="1.1" xmlns="http://www.w3.org/2000/svg" p-id="38175" xmlns:xlink="http://www.w3.org/1999/xlink" width="128" height="128"><path d="M428.95872 820.40832H284.8c-25.45152 0-46.08-20.62848-46.08-46.08s20.62848-46.08 46.08-46.08h279.82848c-13.53728-11.11552-25.22624-27.08992-29.22496-47.93856-4.13696-21.59616-4.51584-44.32896-3.11296-56.32512 1.60256-13.81888 5.6064-24.97024 10.65472-33.97632H284.8c-25.45152 0-46.08-20.62848-46.08-46.08s20.62848-46.08 46.08-46.08h275.22048c7.62368-16.29696 18.19136-30.05952 31.33952-40.4736 20.79744-16.75264 45.2608-21.376 61.58848-22.3744 7.63392-3.29216 17.14176-6.17984 27.81184-6.84032l30.98624-6.73792h5.504c7.14752 0 21.03296 0.83968 33.81248 6.4768 7.936 3.49696 15.90784 8.61184 24.0896 15.4624 18.51904 1.50528 34.19648 6.49728 46.70976 14.88384 39.98208 26.79296 42.45504 72.42752 43.26912 87.424 1.05984 19.57376 1.52576 31.91808 1.50528 41.23136 0 0 0.07168-0.01536 5.60128-0.01536h5.24288V139.17696c0-35.34848-26.07616-64.37888-59.41248-67.67104h-70.72256v22.54848c0 24.03328-19.2 64-60.43648 64-38.12352 0-60.43648-39.96672-60.43648-64v-22.54848H404.85376v22.54848c0 24.03328-23.15776 64-60.43136 64-36.11136 0-60.43136-39.96672-60.43136-64v-22.54848H205.93152c-33.33632 3.29216-59.41248 32.32256-59.41248 67.67104v745.31328c0 37.56032 29.42976 68.00384 65.73056 68.00384h216.43776v-107.264M284.8 296.88832h464.64c25.45152 0 46.08 20.62848 46.08 46.08s-20.62848 46.08-46.08 46.08h-464.64c-25.45152 0-46.08-20.62848-46.08-46.08s20.62848-46.08 46.08-46.08z" fill="#0081ff" p-id="38176"></path><path d="M940.33408 914.40128c-6.21056-54.5792-12.34944-57.92256-37.78048-80.8192-25.70752-23.12192-91.95008-30.83264-104.8064-34.55488-12.86144-3.712-16.55808-10.84416-18.70848-14.83776-2.14528-3.99872-0.29696-8.72448-0.44032-13.29152-0.13824-4.56704 0.5888-18.69824 0.5888-18.69824 20.40832-18.55488 30.2592-42.9824 30.2592-42.9824 27.84768-15.55968 26.84416-26.98752 27.98592-38.97344 1.14176-11.99616-0.84992-28.9792-4.56704-37.26848-3.72224-8.27904-10.8544-12.27264-10.8544-12.27264s0.42496-2.7136 0.85504-11.70432c0.4352-8.99072 0-22.13376-1.28-45.82912-1.29024-23.7056-7.42912-39.12704-20.84352-48.11776-13.4144-8.99072-39.26528-6.42048-39.26528-6.42048-11.56608-12.56448-19.41504-17.70496-24.2688-19.84512-4.864-2.14528-13.2864-2.14528-13.2864-2.14528l-30.83776 6.71744c-10.84928-0.72192-21.26848 7.04512-21.26848 7.04512-3.28704-0.65536-27.26912-1.34144-42.69568 11.22304-22.55872 17.70496-25.4208 50.9696-25.98912 58.68544-0.5632 7.71072 0 49.82784 0 49.82784-11.56608 6.56896-13.8496 19.13344-14.56128 25.27232-0.72192 6.144-0.72192 23.9872 2.56512 41.12384 3.28704 17.1264 22.12864 24.55552 22.12864 24.55552 9.42592 21.9904 33.70496 41.12384 33.70496 41.12384s0.43008 16.70144 0.71168 24.55552c0.28672 7.8592-0.13824 10.28096-9.85088 16.71168s-29.98272 9.99424-42.69568 11.99616c-12.70784 2.01216-28.54912 4.85376-42.12224 9.99936-13.56288 5.13536-26.84416 11.70432-42.2656 25.69216-15.42144 13.99296-17.84832 22.84544-20.70528 31.55968-2.47296 7.54688-4.4032 34.61632-4.87936 41.68704h-0.8192v29.12256h456.18176v-29.12256h-0.18944v-0.01536z m-213.4784-399.96416h-1.7152l1.13664-0.24576c0.14848 0.0512 0.3584 0.14336 0.57856 0.24576z" fill="#0081ff" p-id="38177"></path></svg>