<?xml version="1.0" standalone="no"?><!DOCTYPE svg PUBLIC "-//W3C//DTD SVG 1.1//EN" "http://www.w3.org/Graphics/SVG/1.1/DTD/svg11.dtd"><svg t="1742828366205" class="icon" viewBox="0 0 1024 1024" version="1.1" xmlns="http://www.w3.org/2000/svg" p-id="2470" xmlns:xlink="http://www.w3.org/1999/xlink" width="128" height="128"><path d="M690.6 153c0 41-34.1 75.1-75.1 75.1H412.9c-41 0-75.1-34.1-75.1-75.1v-11.4c0-41 34.1-75.1 75.1-75.1h202.6c41 0 75.1 34.1 75.1 75.1V153z m0 0" fill="#0081ff" p-id="2471"></path><path d="M822.6 182.6h-86.5c-13.7 54.6-63.7 95.6-122.9 95.6H410.6c-59.2 0-109.3-41-122.9-95.6h-84.2c-38.7 0-70.6 34.1-70.6 75.1v623.7c0 41 31.9 75.1 70.6 75.1h616.8c38.7 0 70.6-34.1 70.6-75.1V257.8c0-41-29.6-75.2-68.3-75.2zM706.5 744.8H321.9v-50.1h382.4l2.2 50.1z m0-150.2H321.9v-50.1h382.4l2.2 50.1z m0-152.5H321.9V392h382.4l2.2 50.1z m0 0" fill="#0081ff" p-id="2472"></path></svg>