<svg t="1598507565178" class="icon" viewBox="0 0 1024 1024" version="1.1" xmlns="http://www.w3.org/2000/svg" p-id="3397" width="128" height="128"><path d="M97.94 492.18c11.05 0 20-8.95 20-20V205.6c0-11.03 8.97-20 20-20h24.65c11.05 0 20-8.95 20-20s-8.95-20-20-20h-24.65c-33.08 0-60 26.92-60 60v266.58c0 11.05 8.96 20 20 20zM232.3 185.6h14.16c11.05 0 20-8.95 20-20s-8.95-20-20-20H232.3c-11.05 0-20 8.95-20 20s8.95 20 20 20zM309.94 185.6h578c11.03 0 20 8.97 20 20v37.63c0 11.05 8.95 20 20 20s20-8.95 20-20V205.6c0-33.08-26.92-60-60-60h-578c-11.05 0-20 8.95-20 20s8.95 20 20 20zM927.94 505.94c-11.05 0-20 8.95-20 20V818.4c0 11.03-8.97 20-20 20h-750c-11.03 0-20-8.97-20-20v-63.51c0-11.05-8.95-20-20-20s-20 8.95-20 20v63.51c0 33.08 26.92 60 60 60h749.99c33.08 0 60-26.92 60-60V525.94c0.01-11.05-8.95-20-19.99-20z" fill="#004039" p-id="3398"></path><path d="M159.97 718.84c55.13 0 99.99-44.85 99.99-99.99 0-20.35-6.12-39.3-16.6-55.11l77.08-77.08c7.81-7.81 7.81-20.47 0-28.29s-20.47-7.81-28.29 0l-77.08 77.08c-15.81-10.48-34.76-16.6-55.11-16.6-55.13 0-99.99 44.85-99.99 99.99s44.87 100 100 100z m0-159.97c33.08 0 59.99 26.91 59.99 59.99s-26.91 59.99-59.99 59.99-59.99-26.91-59.99-59.99 26.91-59.99 59.99-59.99zM887.26 287.97c-55.13 0-99.99 44.85-99.99 99.99s44.85 99.99 99.99 99.99 99.99-44.85 99.99-99.99-44.85-99.99-99.99-99.99z m0 159.98c-33.08 0-59.99-26.91-59.99-59.99s26.91-59.99 59.99-59.99 59.99 26.91 59.99 59.99-26.91 59.99-59.99 59.99zM402.19 296.71c-42.69 0-77.43 34.73-77.43 77.42s34.73 77.43 77.43 77.43c14.14 0 27.39-3.83 38.81-10.47l110.72 110.72c3.91 3.91 9.02 5.86 14.14 5.86s10.24-1.95 14.14-5.86c7.81-7.81 7.81-20.47 0-28.29L469.25 412.77c6.58-11.38 10.37-24.57 10.37-38.63 0-42.7-34.73-77.43-77.43-77.43z m-37.42 77.43c0-20.64 16.79-37.42 37.43-37.42s37.42 16.79 37.42 37.42c0 20.64-16.79 37.43-37.42 37.43-20.64-0.01-37.43-16.8-37.43-37.43zM800.14 486.18c-7.81-7.81-20.47-7.81-28.28 0l-66.95 66.95a76.908 76.908 0 0 0-40.86-11.7c-42.69 0-77.43 34.73-77.43 77.42s34.73 77.43 77.43 77.43 77.42-34.73 77.42-77.43c0-13.2-3.33-25.64-9.18-36.53l67.86-67.86c7.8-7.8 7.8-20.47-0.01-28.28z m-136.1 170.1c-20.64 0-37.43-16.79-37.43-37.43s16.79-37.42 37.43-37.42 37.42 16.79 37.42 37.42c0 20.64-16.78 37.43-37.42 37.43z" fill="#004039" p-id="3399"></path><path d="M863.08 630.69v137.98c0 8.78-7.12 15.9-15.9 15.9H174.72c-6.7 0-12.13-5.43-12.13-12.13 0-6.35 4.83-11.65 11.15-12.26 71.96-6.92 128.22-67.56 128.22-141.34 0-4.59-0.22-9.12-0.64-13.6-1.8-19.01 4.95-37.83 18.46-51.33l52.95-52.95c15.62-15.62 40.94-15.62 56.57 0l94.99 94.99c13.81 13.81 23.22 31.27 27.84 50.25 12.27 50.42 57.72 87.83 111.91 87.83 53.57 0 98.6-36.57 111.48-86.1 4.16-16.01 12.25-30.72 23.94-42.41l0.84-0.84c23.16-23.16 62.78-6.75 62.78 26.01z" fill="#cce6ff" p-id="3400"></path></svg>