<svg t="1598498789101" class="icon" viewBox="0 0 1024 1024" version="1.1" xmlns="http://www.w3.org/2000/svg" p-id="2932" width="128" height="128"><path d="M487.2 434.36H372.12l169.22-255.48h115.08zM342.78 434.36h-46.69l169.22-255.48H512z" fill="#B4E7B4" p-id="2933"></path><path d="M337.11 198.88h-13.27c-11.05 0-20-8.95-20-20s8.95-20 20-20h13.27c11.05 0 20 8.95 20 20s-8.95 20-20 20z" fill="#004039" p-id="2934"></path><path d="M885.77 512.53h-10.21V275.74c0-10.84-8.43-20.08-19.27-20.47-11.38-0.4-20.73 8.7-20.73 19.99v237.27H811.9V275.74c0-10.84-8.43-20.08-19.27-20.47-11.38-0.4-20.73 8.7-20.73 19.99v237.27h-23.67V435.3c0-10.84-8.43-20.08-19.27-20.47-11.38-0.4-20.73 8.7-20.73 19.99v77.71H447.82v-51.08h186.69c18.06 0 32.7-14.64 32.7-32.7V191.57c0-18.06-14.64-32.7-32.7-32.7H401.29c-10.84 0-20.08 8.43-20.47 19.27-0.4 11.38 8.7 20.73 19.99 20.73H627.2v222.58H223.11V198.88h29.91c10.84 0 20.08-8.43 20.47-19.27 0.4-11.38-8.7-20.73-19.99-20.73h-37.69c-18.06 0-32.7 14.64-32.7 32.7v237.18c0 18.06 14.64 32.7 32.7 32.7h192.01v51.08H138.23c-33.14 0-60 26.86-60 60v322.42c0 22.09 17.91 40 40 40h65.81c22.09 0 40-17.91 40-40V659.14h332.3v235.81c0 22.09 17.91 40 40 40h309.43c22.09 0 40-17.91 40-40V572.53c0-33.14-26.86-60-60-60z m20 382.42H596.34V619.14h-412.3v275.81h-65.81V572.53c0-11.03 8.97-20 20-20H885.78c11.03 0 20 8.97 20 20v322.42z" fill="#004039" p-id="2935"></path></svg>