<svg t="1598498768474" class="icon" viewBox="0 0 1024 1024" version="1.1" xmlns="http://www.w3.org/2000/svg" p-id="2772" width="128" height="128"><path d="M694.44 874.63H320.28c-22 0-40-18-40-40V714.22c0-22 18-40 40-40h374.16c22 0 40 18 40 40v120.41c0 22-18 40-40 40z" fill="#cce6ff" p-id="2773"></path><path d="M817.3 186.26m-39.36 0a39.36 39.36 0 1 0 78.72 0 39.36 39.36 0 1 0-78.72 0Z" fill="#cce6ff" p-id="2774"></path><path d="M689.27 134.8m-59.57 0a59.57 59.57 0 1 0 119.14 0 59.57 59.57 0 1 0-119.14 0Z" fill="#cce6ff" p-id="2775"></path><path d="M365.61 293c4.93 0 9.87-1.81 13.74-5.47l4.06-3.84c8.02-7.59 8.38-20.25 0.79-28.27-7.59-8.02-20.25-8.38-28.27-0.79l-4.06 3.84c-8.03 7.59-8.38 20.25-0.79 28.27 3.93 4.16 9.22 6.26 14.53 6.26z" fill="#004039" p-id="2776"></path><path d="M924.01 528.25L812.97 423.74V297.36c0-32.14-26.15-58.28-58.28-58.28-32.14 0-58.28 26.15-58.28 58.28v16.66L535.49 162.58c-23.11-21.76-59.29-21.71-82.35 0.1l-49.58 46.89c-8.02 7.59-8.38 20.25-0.79 28.27s20.25 8.38 28.27 0.79l49.58-46.89c7.69-7.27 19.75-7.28 27.45-0.03l194.62 183.17a20.006 20.006 0 0 0 21.64 3.8 20.005 20.005 0 0 0 12.07-18.36v-62.95c0-10.08 8.2-18.28 18.28-18.28 10.08 0 18.28 8.2 18.28 18.28v135.02c0 5.51 2.28 10.78 6.29 14.56l80.61 75.86h-45.94c-11.05 0-20 8.95-20 20v365.96c0 11.03-8.97 20-20 20H214.34c-11.03 0-20-8.97-20-20V542.81c0-11.05-8.95-20-20-20h-43.78l199.63-188.79c8.02-7.59 8.38-20.25 0.79-28.27-7.59-8.02-20.25-8.38-28.27-0.79L66.57 528.28a20.006 20.006 0 0 0-4.84 21.93 19.995 19.995 0 0 0 18.58 12.6h74.03v345.96c0 33.08 26.92 60 60 60h559.59c33.08 0 60-26.92 60-60V562.81h76.37c8.2 0 15.57-5 18.59-12.63s1.09-16.31-4.88-21.93z" fill="#004039" p-id="2777"></path><path d="M509.29 870.88c33.08 0 60-26.92 60-60V571.47c0-33.08-26.92-60-60-60h-24.11c-33.08 0-60 26.92-60 60v239.41c0 33.08 26.92 60 60 60h24.11z m-44.11-60V571.47c0-11.03 8.97-20 20-20h24.11c11.03 0 20 8.97 20 20v239.41c0 11.03-8.97 20-20 20h-24.11c-11.03 0-20-8.97-20-20z" fill="#004039" p-id="2778"></path></svg>