<?xml version="1.0" standalone="no"?><!DOCTYPE svg PUBLIC "-//W3C//DTD SVG 1.1//EN" "http://www.w3.org/Graphics/SVG/1.1/DTD/svg11.dtd"><svg t="1742828773425" class="icon" viewBox="0 0 1024 1024" version="1.1" xmlns="http://www.w3.org/2000/svg" p-id="993" width="128" height="128" xmlns:xlink="http://www.w3.org/1999/xlink"><path d="M841.728 752.128v119.808c16.384 0 30.208-13.312 30.208-30.208v-59.904c0-16.384-13.312-29.696-30.208-29.696zM497.152 452.096v119.808H842.24c16.384 0 30.208-13.312 30.208-30.208v-59.904c0-16.384-13.312-30.208-30.208-30.208-0.512 0.512-345.088 0.512-345.088 0.512z m150.016-300.032v119.808H842.24c16.384 0 30.208-13.312 30.208-30.208v-59.392c0-16.384-13.312-30.208-30.208-30.208H647.168zM182.272 92.16H842.24c49.664 0 90.112 40.448 90.112 90.112v59.904c0 49.664-40.448 90.112-90.112 90.112H182.272c-49.664 0-90.112-40.448-90.112-90.112v-59.904c0-49.664 40.448-90.112 90.112-90.112z m0 300.032H842.24c49.664 0 90.112 40.448 90.112 90.112v59.904c0 49.664-40.448 90.112-90.112 90.112H182.272c-49.664 0-90.112-40.448-90.112-90.112v-60.416c0-49.664 40.448-89.6 90.112-89.6z m0 299.52H842.24c49.664 0 90.112 40.448 90.112 90.112v59.904c0 49.664-40.448 90.112-90.112 90.112H182.272c-49.664 0-90.112-40.448-90.112-90.112v-59.904c0-49.664 40.448-90.112 90.112-90.112z" fill="#0081ff" p-id="994"></path></svg>