<?xml version="1.0" standalone="no"?><!DOCTYPE svg PUBLIC "-//W3C//DTD SVG 1.1//EN" "http://www.w3.org/Graphics/SVG/1.1/DTD/svg11.dtd"><svg t="1756215544490" class="icon" viewBox="0 0 1024 1024" version="1.1" xmlns="http://www.w3.org/2000/svg" p-id="27964" xmlns:xlink="http://www.w3.org/1999/xlink" width="128" height="128"><path d="M945.898305 129.128136l-53.80339-34.711865 5.20678-35.84-70.898983-3.557966L815.728814 22.736271l-48.85695 42.869153-34.104406-18.397288-14.405424 46.861017-12.75661 12.66983-22.736271-8.677966-16.141017 47.728814-10.066441 10.413559L633.491525 146.136949l-13.971525 45.559322-13.624407 13.971526-22.823051-8.677966-11.368135 45.559322-13.971526 13.971525-23.604067-10.500339-14.058306 46.340339-12.235932 12.235932-24.471864-7.896949-12.322712 44.604746L457.068475 355.79661l-21.868475-12.322712-12.669831 48.59661-9.285423 8.851526 161.496949 161.496949 20.219661-18.484068 13.971525-13.971525 21.000678 4.338983 13.971526-40.265763 14.058305-14.839322 21.868474 3.471187 12.235933-36.707797 12.235932-11.454915H728.949153l11.368135-36.707797L754.983051 382.871864l25.426441 0.867797 8.677966-37.575593 14.839322-12.235932 22.736271-0.954577 12.322712-34.711864 13.971525-14.839322 23.604068-0.954576 13.190508-35.84 15.707119-24.471865 23.604068-2.690169-9.198644-73.762712zM810.261695 217.730169a47.815593 47.815593 0 1 1 47.728813-47.728813 47.728814 47.728814 0 0 1-47.728813 47.728813zM319.262373 480.932881l-71.159322-24.732203L78.101695 626.202034v291.92678l83.134915 83.134915 406.128814-406.128814L386.169492 413.938983zM166.096271 945.898305l-43.38983-43.38983 113.247457-112.81356 43.389831 43.389831z" p-id="27965" fill="#0081ff"></path></svg>