<?xml version="1.0" standalone="no"?><!DOCTYPE svg PUBLIC "-//W3C//DTD SVG 1.1//EN" "http://www.w3.org/Graphics/SVG/1.1/DTD/svg11.dtd"><svg t="1742828353862" class="icon" viewBox="0 0 1024 1024" version="1.1" xmlns="http://www.w3.org/2000/svg" p-id="2117" xmlns:xlink="http://www.w3.org/1999/xlink" width="128" height="128"><path d="M109.5 420.5L393 579.3c65.4 36.7 172.5 36.7 237.8 0l283.5-158.7c65.4-36.6 65.4-96.5 0-133.2L631 128.6c-65.3-36.6-172.5-36.6-237.8 0L109.6 287.4c-65.4 36.6-65.4 96.6-0.1 133.1z" fill="#0081ff" p-id="2118"></path><path d="M914.4 483L631 653.2c-65.4 39.3-172.5 39.3-237.8 0L109.6 483c-12.1-7-22.8-16.1-31.7-26.7C47 494 57.3 541.2 109.6 572.5l283.5 170.3c65.4 39.3 172.5 39.3 237.9 0l283.5-170.4c52.1-31.3 62.6-78.5 31.7-116.2-9 10.7-19.8 19.7-31.8 26.8" fill="#0081ff" p-id="2119"></path><path d="M914.4 633.5L631 803.7c-65.4 39.3-172.5 39.3-237.8 0L109.6 633.5c-12.1-7.1-22.8-16.1-31.7-26.7C47 644.5 57.3 691.7 109.6 723l283.5 170.4c65.4 39.3 172.5 39.3 237.9 0l283.5-170.2c52.1-31.3 62.6-78.5 31.7-116.2-9.1 10.4-19.8 19.4-31.8 26.5" fill="#0081ff" p-id="2120"></path></svg>