<?xml version="1.0" standalone="no"?><!DOCTYPE svg PUBLIC "-//W3C//DTD SVG 1.1//EN" "http://www.w3.org/Graphics/SVG/1.1/DTD/svg11.dtd"><svg t="1733633596380" class="icon" viewBox="0 0 1024 1024" version="1.1" xmlns="http://www.w3.org/2000/svg" p-id="5442" xmlns:xlink="http://www.w3.org/1999/xlink" width="80" height="80"><path d="M102.4 663.153778h819.370667v-460.8a51.2 51.2 0 0 1 102.229333 0v665.713778a51.2 51.2 0 0 1-51.2 51.2H51.2a51.2 51.2 0 0 1-51.2-51.2V202.296889a51.2 51.2 0 0 1 102.229333 0l0.170667 460.856889z m365.909333-91.136l-26.851555-24.064a22.016 22.016 0 0 0-30.094222 0l-26.965334 24.064a69.176889 69.176889 0 0 1-95.288889 0l-26.965333-24.064a22.016 22.016 0 0 0-30.094222 0l-34.816 31.402666a24.064 24.064 0 0 1-37.717334-6.030222 36.522667 36.522667 0 0 1 5.12-45.056l34.645334-31.573333a69.404444 69.404444 0 0 1 95.402666 0l26.851556 24.064c8.533333 7.907556 21.617778 7.907556 30.151111 0l26.851556-24.064a69.290667 69.290667 0 0 1 95.345777 0l26.908445 24.064c8.533333 7.907556 21.617778 7.907556 30.094222 0l26.965333-24.064a69.290667 69.290667 0 0 1 95.345778 0l26.908445 24.064c8.476444 7.907556 21.617778 7.907556 30.094222 0l26.908444-24.064a69.404444 69.404444 0 0 1 95.345778 0l26.908445 24.064a36.408889 36.408889 0 0 1 5.176888 45.056 24.064 24.064 0 0 1-37.774222 5.973333l-26.908444-24.064a22.016 22.016 0 0 0-30.037334 0l-26.965333 24.064a69.063111 69.063111 0 0 1-95.345778 0l-26.965333-24.064a22.016 22.016 0 0 0-30.037333 0l-26.908445 24.064a70.599111 70.599111 0 0 1-47.502222 19.114667 71.395556 71.395556 0 0 1-47.729778-19.057778v0.170667z m0-131.356445l-26.851555-24.064a22.016 22.016 0 0 0-30.094222 0l-26.965334 24.064a69.176889 69.176889 0 0 1-95.288889 0l-26.965333-24.064a22.016 22.016 0 0 0-30.094222 0l-34.816 31.459556a24.064 24.064 0 0 1-37.717334-5.973333 36.522667 36.522667 0 0 1 5.12-45.056l34.645334-31.573334a69.233778 69.233778 0 0 1 95.402666 0l26.851556 24.064c8.533333 7.907556 21.617778 7.907556 30.151111 0l26.851556-24.064a69.176889 69.176889 0 0 1 95.345777 0l26.908445 24.064c8.533333 7.907556 21.617778 7.907556 30.094222 0l26.965333-24.064a69.176889 69.176889 0 0 1 95.345778 0l26.908445 24.064c8.476444 7.907556 21.617778 7.907556 30.094222 0l26.908444-24.064a69.233778 69.233778 0 0 1 95.345778 0l26.908445 24.064a36.408889 36.408889 0 0 1 5.176888 45.056 24.064 24.064 0 0 1-37.774222 5.973334l-26.908444-24.064a22.016 22.016 0 0 0-30.037334 0l-26.965333 24.064a69.176889 69.176889 0 0 1-95.345778 0l-26.965333-24.064a22.016 22.016 0 0 0-30.037333 0l-26.908445 24.064a70.599111 70.599111 0 0 1-47.502222 19.000888 71.68 71.68 0 0 1-47.729778-18.944v0.056889z m0-131.299555l-26.851555-24.064a22.016 22.016 0 0 0-30.094222 0l-26.965334 24.064a69.176889 69.176889 0 0 1-95.288889 0l-26.965333-24.064a22.016 22.016 0 0 0-30.094222 0l-34.816 31.459555a24.064 24.064 0 0 1-37.717334-5.973333 36.522667 36.522667 0 0 1 5.12-45.056l34.645334-31.630222a69.233778 69.233778 0 0 1 95.402666 0l26.851556 24.064c8.533333 7.964444 21.617778 7.964444 30.151111 0l26.851556-24.064a69.176889 69.176889 0 0 1 95.345777 0l26.908445 24.064c8.533333 7.964444 21.617778 7.964444 30.094222 0l26.965333-24.064a69.176889 69.176889 0 0 1 95.345778 0l26.908445 24.064c8.476444 7.964444 21.617778 7.964444 30.094222 0l26.908444-24.064a69.233778 69.233778 0 0 1 95.345778 0l26.908445 24.064a36.408889 36.408889 0 0 1 5.176888 45.056 24.064 24.064 0 0 1-37.774222 6.030222l-26.908444-24.064a22.016 22.016 0 0 0-30.037334 0l-26.965333 24.064a69.176889 69.176889 0 0 1-95.345778 0l-26.965333-24.064a22.016 22.016 0 0 0-30.037333 0l-26.908445 24.064a70.599111 70.599111 0 0 1-47.502222 19.057778 71.452444 71.452444 0 0 1-47.729778-18.887111z" fill="#0081ff" p-id="5443"></path></svg>